<svg xmlns="http://www.w3.org/2000/svg" viewBox="0 0 384 496"><defs><style>.cls-1{fill:#f27405;}.cls-2{fill:#fff;}</style></defs><title>자산 2</title><g id="레이어_2" data-name="레이어 2"><g id="레이어_1-2" data-name="레이어 1"><path class="cls-1" d="M192,496a24.22,24.22,0,0,1-19.21-9.54L39,310.15a193.16,193.16,0,0,1-39-116V192C0,86.14,86.14,0,192,0S384,86.14,384,192v2.11a193.16,193.16,0,0,1-39,116L211.21,486.46A24.22,24.22,0,0,1,192,496Z"/><path class="cls-2" d="M184,384h16v16H184Z"/><path class="cls-2" d="M216,384h16v16H216Z"/><path class="cls-2" d="M152,384h16v16H152Z"/><circle class="cls-2" cx="190.14" cy="193.86" r="144"/><rect class="cls-1" x="223.89" y="148.2" width="15.88" height="15.88"/><path class="cls-1" d="M247.71,112.47H132.58a23.83,23.83,0,0,0-23.82,23.82V251.42a23.83,23.83,0,0,0,23.82,23.82H247.71a23.83,23.83,0,0,0,23.82-23.82V136.29A23.83,23.83,0,0,0,247.71,112.47ZM132.58,128.35H247.71a8,8,0,0,1,7.94,7.94v81.62l-26-24.85a7.35,7.35,0,0,0-10.12,0L195.74,216,156.4,178.41a7.35,7.35,0,0,0-10.12,0l-21.64,20.73V136.29A7.94,7.94,0,0,1,132.58,128.35Zm-7.94,123.07v-32l26.72-25.6L185,226.09l-34.73,33.27H132.58A7.93,7.93,0,0,1,124.64,251.42Zm123.07,7.94H171.49l53.11-50.89,31.05,29.73v13.22A7.94,7.94,0,0,1,247.71,259.36Z"/></g></g></svg>