<svg xmlns="http://www.w3.org/2000/svg" viewBox="0 0 72.04 12.94"><defs><style>.cls-1{isolation:isolate;}.cls-2{fill:#3e1f0b;}.cls-3{fill:#e77114;}</style></defs><title>자산 3</title><g id="레이어_2" data-name="레이어 2"><g id="레이어_1-2" data-name="레이어 1"><g id="레이어_1-2-2" data-name="레이어 1-2"><g class="cls-1"><g class="cls-1"><path class="cls-2" d="M1.62,9.49H0V0H1.62Z"/><path class="cls-2" d="M8.88,9.49H7.26v-3a1.52,1.52,0,0,0-.47-1.11,1.54,1.54,0,0,0-1.12-.47,1.58,1.58,0,0,0-1.13.46,1.5,1.5,0,0,0-.47,1.12v3H2.45v-3a3.09,3.09,0,0,1,.93-2.27,3.13,3.13,0,0,1,2.28-.93,3.1,3.1,0,0,1,2.28.93,3.06,3.06,0,0,1,.94,2.27Z"/></g><g class="cls-1"><path class="cls-3" d="M16.13,6.47a3.18,3.18,0,0,1-3.2,3.2,3.16,3.16,0,0,1-1.6-.42v3.69H9.71V6.47a3.07,3.07,0,0,1,.93-2.28,3.11,3.11,0,0,1,2.29-.93,3.18,3.18,0,0,1,3.2,3.21Zm-1.62,0a1.5,1.5,0,0,0-.46-1.12,1.53,1.53,0,0,0-1.12-.47,1.55,1.55,0,0,0-1.13.47,1.51,1.51,0,0,0-.47,1.12,1.6,1.6,0,0,0,2.72,1.12A1.52,1.52,0,0,0,14.51,6.47Z"/><path class="cls-3" d="M23.39,9.49H21.77v-3a1.52,1.52,0,0,0-.47-1.11,1.54,1.54,0,0,0-1.12-.47,1.58,1.58,0,0,0-1.13.46,1.5,1.5,0,0,0-.47,1.12v3H17V0h1.62V3.67a3.27,3.27,0,0,1,1.59-.41,3.1,3.1,0,0,1,2.28.93,3.06,3.06,0,0,1,.94,2.27Z"/><path class="cls-3" d="M30.64,6.46a3.21,3.21,0,1,1-6.42,0,3.09,3.09,0,0,1,.93-2.27,3.13,3.13,0,0,1,2.28-.93,3.18,3.18,0,0,1,3.21,3.2ZM29,6.46a1.61,1.61,0,0,0-1.59-1.58,1.56,1.56,0,0,0-1.12.46,1.49,1.49,0,0,0-.47,1.12,1.59,1.59,0,0,0,1.59,1.59,1.54,1.54,0,0,0,1.13-.46A1.58,1.58,0,0,0,29,6.46Z"/></g><g class="cls-1"><path class="cls-2" d="M42.47,9.49H40.85v-3a1.53,1.53,0,0,0-.46-1.12,1.56,1.56,0,0,0-1.12-.46,1.52,1.52,0,0,0-1.36.76h0V9.49H36.29v-3a1.48,1.48,0,0,0-.47-1.11,1.53,1.53,0,0,0-1.12-.47,1.58,1.58,0,0,0-1.13.46,1.54,1.54,0,0,0-.47,1.12v3H31.48v-3a3.06,3.06,0,0,1,.94-2.27,3.1,3.1,0,0,1,2.28-.93,3.14,3.14,0,0,1,2.28,1,3.2,3.2,0,0,1,5.49,2.25Z"/><path class="cls-2" d="M51,9.49H49.3L49,8.56a3.25,3.25,0,0,1-4.73.19,3.11,3.11,0,0,1-.93-2.27,3.1,3.1,0,0,1,.58-1.84,3.08,3.08,0,0,1,1.53-1.17,3.2,3.2,0,0,1,1.11-.21,3.21,3.21,0,0,1,3,2.13Zm-2.92-3a1.51,1.51,0,0,0-.68-1.31,1.6,1.6,0,0,0-.91-.28,1.48,1.48,0,0,0-1.3.68,1.59,1.59,0,0,0-.29.91,1.51,1.51,0,0,0,.69,1.31,1.57,1.57,0,0,0,.9.28,1.52,1.52,0,0,0,1.12-.46A1.5,1.5,0,0,0,48.11,6.47Z"/><path class="cls-2" d="M55.08,9.49a3.13,3.13,0,0,1-2.28-.93,3.08,3.08,0,0,1-.93-2.27V0h1.62V3.26h1.59V4.64H53.49V6.29A1.49,1.49,0,0,0,54,7.41a1.52,1.52,0,0,0,1.12.46Z"/><path class="cls-2" d="M57.66,1.88a.93.93,0,0,1-.27.69.93.93,0,0,1-.69.29,1,1,0,0,1-1-1A.94.94,0,0,1,56,1.2,1,1,0,0,1,56.7.92a.92.92,0,0,1,.68.29A.89.89,0,0,1,57.66,1.88Zm-.14,7.61H55.9V3.26h1.62Z"/><path class="cls-2" d="M64.77,6.46a3.21,3.21,0,1,1-6.42,0,3.09,3.09,0,0,1,.93-2.27,3.13,3.13,0,0,1,2.28-.93,3.18,3.18,0,0,1,3.21,3.2Zm-1.62,0a1.61,1.61,0,0,0-1.59-1.58,1.56,1.56,0,0,0-1.12.46A1.49,1.49,0,0,0,60,6.46a1.59,1.59,0,0,0,1.59,1.59,1.54,1.54,0,0,0,1.13-.46A1.58,1.58,0,0,0,63.15,6.46Z"/><path class="cls-2" d="M72,9.49H70.42v-3A1.52,1.52,0,0,0,70,5.35a1.54,1.54,0,0,0-1.12-.47,1.58,1.58,0,0,0-1.13.46,1.5,1.5,0,0,0-.47,1.12v3H65.61v-3a3.09,3.09,0,0,1,.93-2.27,3.13,3.13,0,0,1,2.28-.93,3.1,3.1,0,0,1,2.28.93A3.06,3.06,0,0,1,72,6.46Z"/></g></g></g></g></g></svg>